<svg xmlns="http://www.w3.org/2000/svg" width="334" height="100" fill="none"><g clip-path="url(#a)"><path fill="#5E98AF" d="M58.9 61V0H4C1.8 0 0 2 0 4.3v57h58.9V61ZM66.9 61h29.5V34.8c0-2.4-1.9-4.3-4.1-4.3H66.9v30.7ZM58.9 69.4H29.5v26.3c0 2.4 1.9 4.3 4.1 4.3h25.5V69.4h-.2ZM66.9 69.4V100h25.4c2.2 0 4-2 4-4.3V69.4H67Z"/><path fill="#F8F3D4" d="M114.5 9.8c-.1 5.3.4 44 .3 46.7v8c0 .4.3.8.8.8 6 .3 11.8-.2 17.8-.1h5.8c1.9-.1 2-.9 2-2.4l-.1-6.9c-.1-1.1-.8-1.6-1.8-1.6l-10.5.1-1.8.1c-1 0-1.3-.3-1.4-1.5v-1.2c-.2-7.1.3-14.4.3-21.5l-.1-16.6V6.8c-.2-1.3 0-2.8-.4-4.1-.2-.6-.5-1.2-1-1.2h-8c-1.4 0-1.9.9-2 2.3v6Zm47 33.6c-.3-9.7-.2-20-.2-29.7l-.1-9.2c0-3.2-1.3-3-3-3.1l-6-.1c-1.7 0-2.4.3-2.4 2 0 8.3-.2 32-.1 35.3 0 3.5.4 19 .2 22.4l.1 3.6c.1.4.4.8 1 .8 2.8-.2 5.5-.2 8.3-.2 1-.1 1.9-.4 2.3-1.5l-.2-20.3Zm20.2 6.6c0-3-.4-11.1-.3-12.8l.2-.6.6.2c2.8 3.6 15.6 28.4 17 28.5l1.4.1c2.9-.2 5.4 0 8.3 0 3 0 1-2.9.5-3.7-.7-1-10.9-19.2-11.5-20.3-1.7-3-3.1-6-4.8-8.9-.2-.3-.4-.9-.3-1.2.2-1 .4-2 .9-2.9 2-4 4.1-8 6.6-12 2.7-4.3 4.3-7 6.5-11 .5-.9.8-1.9 1.2-3 0-.4-.3-.8-.8-.8h-9.4c-.8 0-1.7.1-2.1.9l-13.6 24.9c-.1.2-.4.2-.6.2l-.2-.4c0-4.8.8-20.4.6-23.5 0-1.9-.4-2-2.3-2.1l-7-.1c-1.8 0-2 1-2.2 2.4l-.1 11.8c0 5.2-.4 37.8.2 48 0 1.1.2 1.7 1 1.7 2.4-.2 5.8 0 8 0 1.7 0 2-.2 2-2.9 0-3.7.3-7 .3-11.5v-1Zm37.4-2v6.5c0 2.7.2 5.5.4 8.2 0 1 .2 1.2 1.1 1.3 1.8.5 3.5.6 5.3.6 4.6-.2 9.2.1 13.8 0 1.9-.1 2.7 0 4.6-.3 1.7-.3 2.3-1.3 2.3-3.8-.2-1.7 0-2.3 0-4.3 0-2.8-2-3.7-3.8-3.7h-9.2c-3.8 0-3.2.5-3.2-3.5V38.3c0-1.8.3-2.4 2-2.4H243c1.7.3 3-1 3-2.7v-3.7l-.2-2.5c-.1-1.5-.7-2-2.1-2-1 0-1.9 0-2.8.2-3.7.2-5.4-.3-9 0-1.2 0-1.3-.2-1.4-1.3-.4-3.3 0-7 .3-10.3.1-1.4.5-1.6 1.7-1.7l12-.1c1.7-.2 2.2-.1 2.1-1.7-.2-2.5 0-5-.2-7.5-.1-1.4-.6-1.6-2.1-1.6-2.6 0-3.2 0-5.7.2l-15.3.1c-3.6 0-3.8-.3-3.9 4-.2 3.5 0 7 0 10.5 0 6-.4 27.4-.3 32.1Zm69.7-36.5V3.7C288.8.5 283 .9 281 1a27.6 27.6 0 0 0-24.6 21.4c-1.4 5.8-1.5 12-.9 17.9.6 5.5 2 11 5.5 15.5 5.9 7.7 16.7 10.5 26 9 .4 0 .9-.2 1.2-.4.3-.2.5-.5.5-.9l.3-4.8v-3c0-2-4.3-.5-7-.5-2.5 0-5.2-.1-7.5-1.3-4.1-2.3-6.4-6.9-7.7-11.3a31 31 0 0 1-1-14.4c1-6.3 4-13.4 10.6-15.6 3.8-1.2 7.8-.8 11.5-.4.6 0 .9-.2.9-.7Zm39 22.5V7c.1-1.2 0-2.4-.1-3.6-.1-1.4-.4-1.8-2-2h-6.4c-1.2 0-2 .7-2.6 2-2 4.6-15.7 35.2-17.8 39-.7 1.4-1.4 2.3-1.4 3.8v6.3c0 1-.1 1.8 1.8 1.8h16.2c2.1 0 2.1.4 2.1 1.6l-.2 7.7c0 .9.2 1.7 1.8 1.7h7.4c1.8 0 1.8-1 1.8-3v-6.8c0-1.3.2-1.4 2.5-1.4 1.8 0 2.6-.2 2.6-1.3v-6.5c0-1.5-1.4-1.4-4.3-1.4-1 0-1-.3-1-1.6-.2-2.6-.4-6.7-.4-9.3Zm-10.5-8.7-.2 18c0 1.1-.3 1.5-1.5 1.6h-8.4c-.7 0-1-.5-.6-1.2.4-.6 7-17 9-21.3l.6-.7.8-.4.4.7-.1 3.3ZM115.9 95.6h.3c.3 0 .4-1.1.5-1.4 0-.1 0-.2.2-.2h2c.1 0 .2 0 .3.2v.4c.2.2.2.6.3.8.1.2.1.2.3.2h1.4c.4 0 .1-.7.1-.9l-.3-1.3-2-9.2c0-.3 0-.3-.2-.3H117c-.2 0-.2 0-.2.3l-.8 3.8-.9 3.8-.7 3.8h1.4Zm2-3.6h-.3c-.4 0-.4 0-.3-.4a296.8 296.8 0 0 0 .6-2.8h.1l.2 1 .4 1.7c.1.5 0 .5-.2.5h-.4Zm9.4 2.5v-3.1l.1-.2h.1l1.8 3.7.3.8h2c.2 0 .2 0 .2-.3l-1.3-2.5-1-2.3.2-.2c.7-.7 1.4-1.4 1.5-2.4.2-1 0-2.2-.7-3-.5-.6-1.2-1-2-1h-2.7c-.3 0-.4 0-.5.3V95.5c0 .2 0 .2.3.2h1.5c.3 0 .2-.5.2-1.2Zm0-6v-1.7c0-.2 0-.7.2-.9.3-.2.9 0 1.1.2.8.6.8 1.9.3 2.6-.2.4-.5.6-1 .7-.1 0-.6.1-.6-.2v-.8Zm14.6-2.7v-1.5c0-.5-1-.5-1.4-.5a5.1 5.1 0 0 0-4.6 4c-.2 1-.3 2.2-.1 3.3 0 1 .3 2 1 2.8 1 1.5 3 2 4.8 1.7h.2v-.2l.1-1V94c0-.3-.8 0-1.2 0-.5 0-1 0-1.4-.3-.8-.4-1.2-1.3-1.5-2-.2-1-.3-1.9-.1-2.7.2-1.2.7-2.5 2-3h2l.2-.1Zm8.7 5.3v4.2c0 .1-.1.3 0 .4H152.2c.5 0 .3-.8.3-1V84l-.5-.2h-1c-.5 0-.6.2-.6.8v3.9l-.1.2h-1.8c-.8 0-.6 0-.7-.7V88c0-1 .2-3.6.1-3.8 0-.2-.1-.3-.4-.3h-1.4c-.1 0-.2 0-.2.3V95.3c0 .5.3.4 1.1.4.7 0 1 .2 1-.7l-.1-2.3V91c0-.3 0-.3.2-.3h2.2c.2 0 .3 0 .3.3Zm8 .6v-7.2c0-.6-.2-.6-.6-.6h-1c-.4 0-.5 0-.5.4v6.5a118 118 0 0 1 .2 5l1.5-.1c.2 0 .4 0 .5-.3v-3.7Zm6 2.3v1.5c0 .2 0 .2.2.2h1.5c.3 0 .2-.5.2-.7V86c0-.2.1-.3.4-.3h1.4c.3 0 .3-.5.3-1 0-.3 0-.9-.3-.9H163c-.4 0-.4.3-.4 1 0 .5 0 1 .3 1h1.4c.2 0 .3 0 .3.2v8Zm7.9-1.5v1.2a47.7 47.7 0 0 0 .3 1.8h4.3c.3 0 .5-.2.5-.7V94c0-.5-.4-.7-.7-.7h-1.7c-.7 0-.6.1-.6-.6v-2c0-.3 0-.4.3-.4h2c.3 0 .5-.2.5-.5v-1.2c0-.2-.1-.3-.4-.3h-2.2c-.2 0-.2 0-.2-.2v-2c0-.2.1-.2.4-.3h2.2c.3 0 .4 0 .4-.3v-1.4c-.1-.2-.2-.3-.5-.3h-1l-2.8.1c-.7 0-.7 0-.8.8V92.5Zm15.2-6.7v-1.5c0-.5-1-.5-1.5-.5a5 5 0 0 0-4.5 4c-.3 1-.3 2.2-.2 3.3.1 1 .4 2 1 2.8 1.1 1.5 3.1 2 4.8 1.7h.3v-.2l.1-1V94c0-.3-.8 0-1.3 0-.4 0-1 0-1.4-.3-.7-.4-1.2-1.3-1.4-2-.3-1-.3-1.9-.2-2.7.2-1.2.8-2.5 2-3h2.1l.2-.1Zm5.9 8.2v1.5c0 .2 0 .2.3.2h1.4c.3 0 .2-.5.2-.7V86c0-.2.1-.3.4-.3h1.4c.4 0 .3-.5.3-1 0-.3.1-.9-.3-.9H192c-.4 0-.4.3-.4 1 0 .5 0 1 .4 1h1.3c.2 0 .3 0 .3.2v8Zm7.9-7.5v4.8c0 1 0 2 .5 2.9.6 1.1 1.9 1.6 3.1 1.6.9-.1 1.7-.3 2.3-1 1-1 .8-2.8.8-4.2v-6.1c0-.3 0-.5-.4-.6h-1.2c-.2 0-.4.2-.4.4V89c0 1.3.2 2.7-.3 4-.1.4-.6.8-1 .8-1.3 0-1.3-1.5-1.3-2.4v-6.9c.1-.2.1-.4-.1-.5H202c-.4 0-.5.2-.5.6v2Zm12.6 8v-3.1l.2-.2 1.8 3.7.3.8h2c.2 0 .3 0 .2-.3l-1.2-2.5-1.1-2.3.2-.2c.8-.7 1.5-1.4 1.6-2.4.2-1 0-2.2-.8-3-.5-.6-1.2-1-2-1h-2.7c-.2 0-.4 0-.4.3V95.5c0 .2 0 .2.2.2h1.5c.4 0 .2-.5.2-1.2Zm0-6v-1.7c0-.2 0-.7.2-.9.3-.2 1 0 1.2.2.8.6.7 1.9.3 2.6-.2.4-.6.6-1 .7-.2 0-.6.1-.6-.2v-.8Zm8.5 4v1.2a47.7 47.7 0 0 0 .2 1.8h4.4c.3 0 .4-.2.4-.7V94c0-.5-.3-.7-.7-.7h-1.7c-.7 0-.6.1-.6-.6v-2c0-.3 0-.4.4-.4h2c.3 0 .5-.2.5-.5v-1.2c0-.2-.1-.3-.4-.3h-2.2c-.2 0-.2 0-.2-.2v-2c0-.2.1-.2.3-.3h2.3c.3 0 .3 0 .3-.3v-1.4c0-.2-.1-.3-.4-.3h-1l-2.9.1c-.6 0-.7 0-.7.8V92.5Zm9.2-.2h2.8c.6 0 .6-.3.6-.6v-1.1c0-.3 0-.4-.3-.4h-3.2s-.2 0-.2.2V92l.3.4Zm8.8 3.3h.3c.3 0 .4-1.1.5-1.4 0-.1 0-.2.2-.2h2c.1 0 .2 0 .3.2v.4c.2.2.2.6.3.8 0 .2.1.2.3.2h1.4c.4 0 .1-.7 0-.9 0-.4 0-.9-.2-1.3l-2-9.2c0-.3 0-.3-.2-.3h-1.7c-.2 0-.2 0-.2.3l-.8 3.8-.9 3.8-.7 3.8H240.6Zm2-3.6h-.3c-.4 0-.4 0-.3-.4a296.8 296.8 0 0 0 .6-2.8h.1l.2 1 .4 1.7c.1.5 0 .5-.2.5h-.5Zm10.6-8.1-.9.1c-.6.2-1.2.7-1.6 1.2-.3.6-.5 1.2-.5 1.8 0 .5 0 1 .2 1.4l1 1.2 1 1 1 .8c.4.5.6 1.5.3 2-.4.7-1.3.8-2 .6l-.8-.6h-.5l-.1.4c-.1.4-.3.7-.3 1.2 0 .4 1 .6 1.3.7 1.5.3 3.4 0 4.2-1.5l.3-1V93c.1-1-.3-1.9-1-2.6-.6-.9-1.4-1.4-2.2-2.1-.5-.5-.6-1.2-.5-1.8.2-.7 1-.9 1.5-.7l.5.2.3.2c.2 0 .2-.2.3-.4l.4-1c0-.5-.3-.6-.6-.7a4 4 0 0 0-1.3-.1Zm6.8 8.4h2.8c.6 0 .6-.3.6-.6v-1.1c0-.3 0-.4-.3-.4h-3.2s-.2 0-.2.2V92l.3.4Zm8.8 3.3h.3c.3 0 .4-1.1.5-1.4 0-.1 0-.2.2-.2h2c.1 0 .2 0 .3.2v.4c.2.2.2.6.3.8.1.2.1.2.3.2h1.4c.4 0 .1-.7.1-.9l-.3-1.3-2-9.2c0-.3 0-.3-.2-.3H270c-.2 0-.2 0-.2.3L269 88l-.9 3.8-.7 3.8h1.4Zm2-3.6h-.3c-.4 0-.4 0-.3-.4a267 267 0 0 0 .6-2.8h.1l.2 1 .4 1.7c.1.5 0 .5-.2.5h-.4Zm7.7.3h2.8c.6 0 .6-.3.6-.6v-1.1c0-.3 0-.4-.3-.4h-3.2s-.2 0-.2.2V92l.3.4Zm13.5-6.5v-1.5c0-.5-1-.5-1.4-.5a5.1 5.1 0 0 0-4.5 4c-.3 1-.3 2.2-.2 3.3.1 1 .4 2 1 2.8 1.1 1.5 3.1 2 4.8 1.7h.2l.1-.2v-1.5c0-.3-.7 0-1.2 0s-1 0-1.4-.3c-.8-.4-1.2-1.3-1.4-2-.3-1-.3-1.9-.2-2.7.2-1.2.8-2.5 2-3h2l.2-.1Zm12.3 1a9.6 9.6 0 0 1 0 5.6 4.3 4.3 0 0 1-3.7 3.3h-.6a4.3 4.3 0 0 1-3.6-3.3 9.6 9.6 0 0 1 0-5.6 4.3 4.3 0 0 1 4-2.9c1.7 0 3.3 1.2 3.9 3Zm-1.6 4.2c.2-1 .1-1.9 0-2.9-.2-.8-.6-1.7-1.3-2.2l-.4-.2-.7-.1h-.6l-.4.3c-.7.5-1.1 1.4-1.3 2.2-.2 1-.2 2 0 3 0 .8.4 2 1.2 2.4.4.2.7.3 1.1.3l1.2-.3c.8-.4 1-1.6 1.2-2.5Zm12.5 1.8.3-.6.2-1.5c.1-1.1 0-2.2-.2-3.3a4.7 4.7 0 0 0-2.6-3.2c-.6-.3-1.2-.3-1.9-.3h-2c-.2 0-.3.1-.3.3l-.1.6V94.9c0 .5-.2.7 1.1.7 1.1 0 2.3-.1 3.4-.5 1-.4 1.7-1.3 2.1-2.3Zm-4.6-1.6V86.1c0-.3 0-.3.4-.3.5 0 .8.1 1.2.3.4.1.6.5.8.8.4.6.6 1.3.6 2v1.4c0 2-1.1 3.4-2.2 3.4-.7 0-.8 0-.8-.4v-2.1Zm9 1.3v1.2a47.7 47.7 0 0 0 .3 1.8h4.4c.3 0 .4-.2.4-.7V94c0-.5-.3-.7-.7-.7h-1.7c-.7 0-.6.1-.6-.6v-2c0-.3.1-.4.4-.4h2c.3 0 .5-.2.5-.5v-1.2c0-.2-.1-.3-.4-.3H322c-.2 0-.2 0-.2-.2v-2c0-.2.1-.2.3-.3h2.3c.3 0 .4 0 .3-.3v-1.4c0-.2-.1-.3-.4-.3h-1l-2.9.1c-.6 0-.7 0-.7.8V92.5Z"/></g><defs><clipPath id="a"><path fill="#fff" d="M0 0h333.5v100H0z"/></clipPath></defs></svg>