<svg width="222" height="56" viewBox="0 0 222 56" fill="none" xmlns="http://www.w3.org/2000/svg">
<path d="M33.9537 33.7781V0H2.36611C1.06475 0 0 1.05924 0 2.35388V33.8958H33.9537V33.7781Z" fill="#5E98AF"/>
<path d="M38.5676 33.7781H55.6037V19.1841C55.6037 17.8894 54.5389 16.8302 53.2375 16.8302H38.5676V33.7781Z" fill="#5E98AF"/>
<path d="M33.9537 38.3682H17.036V52.9622C17.036 54.2568 18.1008 55.3161 19.4021 55.3161H34.072V38.3682H33.9537Z" fill="#5E98AF"/>
<path d="M38.5676 38.3682V55.3161H53.2375C54.5389 55.3161 55.6037 54.2568 55.6037 52.9622V38.3682H38.5676Z" fill="#5E98AF"/>
<path d="M71.6102 12.0846C71.5518 15.69 71.9025 42.0331 71.8441 43.9521C71.8441 45.7549 71.8441 47.5576 71.9025 49.3603C71.9025 49.6511 72.0779 49.9418 72.3701 49.9418C76.462 50.1163 80.4954 49.7674 84.5872 49.8255C85.9317 49.8837 87.2761 49.8255 88.5622 49.8255C89.8482 49.7674 89.9651 49.244 89.9066 48.1973C89.8482 46.569 89.8482 45.1152 89.8482 43.5451C89.7897 42.7309 89.3221 42.4402 88.6206 42.4402C86.224 42.4983 83.8273 42.382 81.4307 42.4983C81.0215 42.5565 80.6123 42.5565 80.2031 42.5565C79.5016 42.4983 79.3263 42.3239 79.2678 41.5679V40.6956C79.0925 35.8689 79.4432 30.8678 79.4432 26.0412C79.3847 21.9705 79.4432 18.3069 79.3847 14.7014C79.3847 13.1313 79.3847 11.5612 79.3263 10.0492C79.2678 9.11878 79.3263 8.13019 79.0925 7.19975C78.9756 6.85083 78.8002 6.38561 78.391 6.38561H72.8962C71.961 6.38561 71.6687 7.02529 71.6102 7.95573V12.0846ZM103.819 34.9967C103.644 28.3673 103.702 21.3308 103.76 14.7596C103.76 12.7242 103.644 10.5144 103.644 8.4791C103.644 6.26931 102.767 6.38561 101.598 6.32746C99.9024 6.26931 99.1425 6.26931 97.4473 6.26931C96.3367 6.21115 95.869 6.50192 95.869 7.60681C95.869 13.3058 95.6936 29.414 95.7521 31.7401C95.8106 34.0662 96.0444 44.65 95.9275 46.9761C95.869 47.7902 95.9275 48.6043 95.9859 49.4185C96.0444 49.7092 96.2197 50 96.6874 50C98.6164 49.8837 100.428 49.8837 102.358 49.8255C103.059 49.7674 103.644 49.5929 103.936 48.837C103.994 48.4299 103.819 37.788 103.819 34.9967ZM117.731 39.4744C117.731 37.4391 117.439 31.9146 117.497 30.7515C117.497 30.5771 117.614 30.3444 117.673 30.3444C117.79 30.3444 118.023 30.4608 118.082 30.5189C119.952 32.9613 128.721 49.8837 129.773 49.9418C130.065 50 130.357 50 130.65 50C132.637 49.8837 134.391 50 136.378 50C138.424 50 137.08 48.0228 136.729 47.4994C136.203 46.7435 129.247 34.357 128.838 33.601C127.668 31.6238 126.675 29.4722 125.506 27.5531C125.389 27.3205 125.272 26.9716 125.33 26.739C125.447 26.0412 125.623 25.4015 125.915 24.7618C127.318 22.0286 128.779 19.2373 130.474 16.6205C132.345 13.6547 133.397 11.7938 134.917 9.11878C135.268 8.4791 135.501 7.78127 135.735 7.02529C135.794 6.73453 135.56 6.44376 135.209 6.44376C134.099 6.38561 130.065 6.44376 128.779 6.44376C128.195 6.44376 127.61 6.56007 127.318 7.08344C126.558 8.53725 118.725 22.7846 117.965 24.064C117.907 24.1803 117.731 24.2384 117.556 24.2384C117.556 24.2384 117.439 24.064 117.439 23.9477C117.38 20.6911 117.965 10.0492 117.848 7.89758C117.79 6.61822 117.556 6.50192 116.27 6.44376C114.867 6.38561 112.938 6.38561 111.535 6.38561C110.249 6.38561 110.132 7.08344 109.957 8.01388C109.898 8.18834 109.898 13.6547 109.898 16.0971C109.898 19.6444 109.606 41.8587 110.015 48.8951C110.015 49.5929 110.19 50 110.775 50C112.353 49.8837 114.691 50 116.27 50C117.38 50 117.556 49.8837 117.556 48.0228C117.556 45.5223 117.79 43.2543 117.79 40.1722C117.79 39.9396 117.731 39.707 117.731 39.4744ZM143.393 38.0787H143.334C143.334 39.5325 143.276 41.0445 143.334 42.5565C143.393 44.4174 143.51 46.2782 143.627 48.1391C143.627 48.7788 143.802 48.9533 144.387 49.0696C145.614 49.3603 146.783 49.4185 148.011 49.4185C151.167 49.3022 154.324 49.5348 157.48 49.4185C158.766 49.3603 159.351 49.4766 160.637 49.244C161.806 49.0114 162.215 48.3717 162.215 46.6272C162.098 45.5223 162.157 45.057 162.157 43.7195C162.157 41.8005 160.812 41.1608 159.643 41.219C158.825 41.2771 154.908 41.1608 153.33 41.1608C150.7 41.219 151.109 41.5679 151.109 38.8347C151.109 36.6249 151.167 33.7754 151.167 31.5075C151.167 30.2863 151.284 29.8792 152.453 29.8792H159.76C160.929 30.0537 161.748 29.2396 161.748 28.0183C161.748 26.7971 161.865 26.739 161.865 25.5178L161.689 23.7732C161.572 22.7846 161.222 22.4357 160.228 22.4357C159.585 22.4357 158.942 22.4939 158.299 22.552C155.785 22.7265 154.616 22.3776 152.161 22.552C151.343 22.552 151.226 22.4357 151.167 21.6797C150.934 19.4118 151.167 16.9112 151.401 14.6433C151.46 13.7128 151.693 13.5384 152.57 13.4802L160.812 13.4221C161.923 13.3058 162.274 13.3639 162.215 12.259C162.098 10.5726 162.274 8.82802 162.098 7.14159C161.981 6.21115 161.689 6.0367 160.637 6.0367C158.883 6.09485 158.474 6.09485 156.721 6.21115C154.967 6.26931 147.952 6.26931 146.257 6.26931C143.802 6.26931 143.627 6.09485 143.568 9.06063C143.451 11.3867 143.51 13.771 143.51 16.1552C143.51 20.2259 143.276 34.8222 143.393 38.0787ZM191.15 13.2476C191.209 11.3286 191.15 9.75846 191.15 7.89758C191.15 5.74593 187.234 5.97854 185.831 6.0367C179.576 6.44376 173.614 10.3981 170.75 15.8063C169.931 17.3764 169.347 19.0047 168.938 20.6911C167.944 24.6455 167.885 28.8325 168.353 32.845C168.762 36.6249 169.756 40.4048 172.094 43.4288C176.128 48.7206 183.551 50.5815 189.923 49.5929C190.215 49.5348 190.507 49.4766 190.741 49.3022C190.917 49.1859 191.092 48.9533 191.092 48.7206L191.267 45.406C191.326 44.3592 191.267 44.4174 191.267 43.3706C191.267 41.975 188.345 43.0217 186.533 43.0217C184.779 43.0217 182.908 42.9635 181.33 42.1494C178.524 40.5793 176.946 37.4391 176.069 34.4733C175.075 31.2749 174.842 27.8439 175.426 24.5874C176.128 20.3422 178.173 15.4574 182.675 14.0036C185.247 13.1313 187.994 13.4221 190.566 13.7128C190.917 13.771 191.15 13.5384 191.15 13.2476ZM217.923 28.5417C217.981 26.0412 217.923 13.7128 217.923 10.1655C217.981 9.35139 217.923 8.53725 217.806 7.72312C217.747 6.73453 217.572 6.44376 216.52 6.38561H212.077C211.259 6.38561 210.733 6.79268 210.265 7.66497C208.921 10.8634 199.51 31.682 198.107 34.2407C197.581 35.2293 197.113 35.8689 197.113 36.9157V41.1608C197.113 41.9168 197.054 42.4402 198.34 42.4402L209.447 42.382C210.908 42.382 210.908 42.6728 210.908 43.4869C210.908 44.3592 210.791 48.3717 210.791 48.7788C210.791 49.3603 210.908 49.9418 212.019 49.9418H217.104C218.332 49.9418 218.332 49.244 218.332 47.9065C218.39 46.7435 218.274 44.4174 218.274 43.2543C218.274 42.3239 218.449 42.2657 220.027 42.2657C221.255 42.2657 221.781 42.1494 221.781 41.3934C221.839 39.8233 221.781 38.7184 221.781 36.9738C221.781 35.9271 220.846 35.9852 218.858 35.9852C218.215 35.9852 218.157 35.8108 218.157 34.9385C218.04 33.1358 217.923 30.3444 217.923 28.5417ZM210.674 22.6102C210.616 23.308 210.557 33.4265 210.557 34.8803C210.499 35.6945 210.324 35.9271 209.564 35.9852C207.635 36.0434 205.706 36.0434 203.777 36.0434C203.309 36.0434 203.134 35.6363 203.368 35.1711C203.601 34.764 208.219 23.5988 209.505 20.6911C209.681 20.5167 209.739 20.3422 209.914 20.1678C210.09 20.0515 210.324 19.9933 210.499 19.9351C210.557 19.9351 210.733 20.2259 210.733 20.4004C210.733 21.1564 210.674 21.9123 210.674 22.6102Z" fill="#F8F3D4"/>
</svg>
