<svg width="111" height="28" viewBox="0 0 111 28" fill="none" xmlns="http://www.w3.org/2000/svg">
<path d="M16.9769 16.8891V0H1.18306C0.532376 0 0 0.529622 0 1.17694V16.9479H16.9769V16.8891Z" fill="#5E98AF"/>
<path d="M19.2838 16.8891H27.8018V9.59204C27.8018 8.94472 27.2695 8.4151 26.6188 8.4151H19.2838V16.8891Z" fill="#5E98AF"/>
<path d="M16.9769 19.1841H8.51807V26.4811C8.51807 27.1284 9.05044 27.658 9.70112 27.658H17.0361V19.1841H16.9769Z" fill="#5E98AF"/>
<path d="M19.2838 19.1841V27.658H26.6188C27.2695 27.658 27.8018 27.1284 27.8018 26.4811V19.1841H19.2838Z" fill="#5E98AF"/>
<path d="M35.8051 6.62742C35.7758 8.18432 35.9512 19.5598 35.922 20.3884C35.922 21.1669 35.922 21.9453 35.9512 22.7238C35.9512 22.8493 36.0389 22.9749 36.185 22.9749C38.2309 23.0502 40.2476 22.8996 42.2935 22.9247C42.9658 22.9498 43.638 22.9247 44.281 22.9247C44.924 22.8996 44.9825 22.6736 44.9532 22.2215C44.924 21.5184 44.924 20.8907 44.924 20.2126C44.8948 19.8611 44.661 19.7355 44.3102 19.7355C43.1119 19.7606 41.9136 19.7104 40.7153 19.7606C40.5107 19.7858 40.3061 19.7858 40.1015 19.7858C39.7508 19.7606 39.6631 19.6853 39.6339 19.3589V18.9822C39.5462 16.898 39.7215 14.7384 39.7215 12.6541C39.6923 10.8963 39.7215 9.31433 39.6923 7.75743C39.6923 7.07943 39.6923 6.40142 39.6631 5.74853C39.6339 5.34675 39.6631 4.91985 39.5462 4.51807C39.4877 4.3674 39.4 4.16651 39.1954 4.16651H36.4481C35.9804 4.16651 35.8343 4.44274 35.8051 4.84452V6.62742ZM51.9094 16.5213C51.8217 13.6586 51.8509 10.6201 51.8801 7.78254C51.8801 6.90365 51.8217 5.94942 51.8217 5.07052C51.8217 4.11629 51.3833 4.16651 50.7987 4.1414C49.9511 4.11629 49.5712 4.11629 48.7236 4.11629C48.1683 4.09118 47.9344 4.21674 47.9344 4.69385C47.9344 7.15476 47.8468 14.1106 47.876 15.115C47.9052 16.1195 48.0221 20.6898 47.9637 21.6942C47.9344 22.0458 47.9637 22.3973 47.9929 22.7489C48.0221 22.8744 48.1098 23 48.3436 23C49.3081 22.9498 50.2142 22.9498 51.1787 22.9247C51.5294 22.8996 51.8217 22.8242 51.9678 22.4978C51.9971 22.322 51.9094 17.7266 51.9094 16.5213ZM58.8655 18.4549C58.8655 17.576 58.7194 15.1904 58.7486 14.6882C58.7486 14.6128 58.8071 14.5124 58.8363 14.5124C58.8947 14.5124 59.0116 14.5626 59.0409 14.5877C59.9761 15.6424 64.3603 22.9498 64.8864 22.9749C65.0325 23 65.1786 23 65.3248 23C66.3185 22.9498 67.1953 23 68.1891 23C69.212 23 68.5398 22.1462 68.3644 21.9202C68.1014 21.5938 64.6233 16.2451 64.4187 15.9186C63.8342 15.0648 63.3373 14.1357 62.7528 13.307C62.6943 13.2066 62.6358 13.0559 62.6651 12.9555C62.7235 12.6541 62.8112 12.3779 62.9574 12.1017C63.6588 10.9215 64.3895 9.71612 65.2371 8.58611C66.1724 7.30543 66.6985 6.50187 67.4584 5.34675C67.6337 5.07052 67.7507 4.76919 67.8676 4.44274C67.8968 4.31718 67.7799 4.19163 67.6045 4.19163C67.0492 4.16651 65.0325 4.19163 64.3895 4.19163C64.0972 4.19163 63.8049 4.24185 63.6588 4.46785C63.2789 5.09563 59.3624 11.2479 58.9824 11.8004C58.9532 11.8506 58.8655 11.8757 58.7778 11.8757C58.7778 11.8757 58.7194 11.8004 58.7194 11.7501C58.6901 10.3439 58.9824 5.74853 58.924 4.81941C58.8947 4.26696 58.7778 4.21674 58.1348 4.19163C57.4334 4.16651 56.4689 4.16651 55.7674 4.16651C55.1244 4.16651 55.0659 4.46785 54.9783 4.86963C54.949 4.94496 54.949 7.30543 54.949 8.3601C54.949 9.89189 54.8029 19.4844 55.0075 22.5229C55.0075 22.8242 55.0952 23 55.3874 23C56.1766 22.9498 57.3457 23 58.1348 23C58.6901 23 58.7778 22.9498 58.7778 22.1462C58.7778 21.0664 58.8947 20.0871 58.8947 18.7562C58.8947 18.6557 58.8655 18.5553 58.8655 18.4549ZM71.6964 17.8522H71.6671C71.6671 18.48 71.6379 19.1329 71.6671 19.7858C71.6964 20.5893 71.7548 21.3929 71.8133 22.1964C71.8133 22.4727 71.9009 22.548 72.1932 22.5982C72.807 22.7238 73.3915 22.7489 74.0053 22.7489C75.5836 22.6987 77.1619 22.7991 78.7402 22.7489C79.3832 22.7238 79.6754 22.774 80.3184 22.6736C80.903 22.5731 81.1076 22.2969 81.1076 21.5435C81.0491 21.0664 81.0784 20.8655 81.0784 20.288C81.0784 19.4593 80.4061 19.1831 79.8216 19.2082C79.4124 19.2333 77.4542 19.1831 76.665 19.1831C75.3498 19.2082 75.5544 19.3589 75.5544 18.1786C75.5544 17.2244 75.5836 15.9939 75.5836 15.0146C75.5836 14.4873 75.6421 14.3115 76.2266 14.3115H79.88C80.4646 14.3868 80.8738 14.0353 80.8738 13.5079C80.8738 12.9806 80.9322 12.9555 80.9322 12.4281L80.8445 11.6748C80.7861 11.2479 80.6107 11.0972 80.1139 11.0972C79.7924 11.0972 79.4709 11.1223 79.1494 11.1475C77.8926 11.2228 77.308 11.0721 76.0805 11.1475C75.6713 11.1475 75.6128 11.0972 75.5836 10.7708C75.4667 9.79145 75.5836 8.71166 75.7005 7.73232C75.7297 7.33054 75.8467 7.25521 76.2851 7.23009L80.4061 7.20498C80.9615 7.15476 81.1368 7.17987 81.1076 6.70276C81.0491 5.97453 81.1368 5.22119 81.0491 4.49296C80.9907 4.09118 80.8445 4.01585 80.3184 4.01585C79.4416 4.04096 79.237 4.04096 78.3602 4.09118C77.4834 4.11629 73.9761 4.11629 73.1285 4.11629C71.9009 4.11629 71.8133 4.04096 71.784 5.32163C71.7256 6.32609 71.7548 7.35565 71.7548 8.38521C71.7548 10.143 71.6379 16.4459 71.6964 17.8522ZM95.5752 7.12965C95.6044 6.30098 95.5752 5.62297 95.5752 4.81941C95.5752 3.89029 93.6169 3.99073 92.9155 4.01585C89.7881 4.19163 86.8069 5.89919 85.3748 8.23455C84.9656 8.91255 84.6733 9.61567 84.4687 10.3439C83.9719 12.0515 83.9427 13.8595 84.1765 15.5922C84.3811 17.2244 84.8779 18.8566 86.047 20.1624C88.0637 22.4476 91.7756 23.2511 94.9614 22.8242C95.1075 22.7991 95.2537 22.774 95.3706 22.6987C95.4583 22.6484 95.5459 22.548 95.5459 22.4476L95.6336 21.0162C95.6629 20.5642 95.6336 20.5893 95.6336 20.1373C95.6336 19.5346 94.1723 19.9866 93.2662 19.9866C92.3894 19.9866 91.4541 19.9615 90.665 19.61C89.262 18.932 88.4729 17.576 88.0345 16.2953C87.5376 14.9142 87.4207 13.4326 87.713 12.0264C88.0637 10.1932 89.0867 8.08388 91.3372 7.4561C92.6232 7.07943 93.9969 7.20498 95.2829 7.33054C95.4583 7.35565 95.5752 7.25521 95.5752 7.12965ZM108.961 13.7339C108.991 12.6541 108.961 7.33054 108.961 5.79875C108.991 5.44719 108.961 5.09563 108.903 4.74407C108.874 4.31718 108.786 4.19163 108.26 4.16651H106.039C105.629 4.16651 105.366 4.34229 105.133 4.71896C104.46 6.10009 99.7547 15.0899 99.0532 16.1948C98.7902 16.6217 98.5564 16.898 98.5564 17.35V19.1831C98.5564 19.5095 98.5271 19.7355 99.1701 19.7355L104.723 19.7104C105.454 19.7104 105.454 19.836 105.454 20.1875C105.454 20.5642 105.396 22.2969 105.396 22.4727C105.396 22.7238 105.454 22.9749 106.009 22.9749H108.552C109.166 22.9749 109.166 22.6736 109.166 22.096C109.195 21.5938 109.137 20.5893 109.137 20.0871C109.137 19.6853 109.224 19.6602 110.014 19.6602C110.627 19.6602 110.89 19.61 110.89 19.2835C110.92 18.6055 110.89 18.1284 110.89 17.3751C110.89 16.9231 110.423 16.9482 109.429 16.9482C109.107 16.9482 109.078 16.8728 109.078 16.4962C109.02 15.7177 108.961 14.5124 108.961 13.7339ZM105.337 11.1726C105.308 11.4739 105.279 15.8433 105.279 16.4711C105.249 16.8226 105.162 16.9231 104.782 16.9482C103.817 16.9733 102.853 16.9733 101.888 16.9733C101.654 16.9733 101.567 16.7975 101.684 16.5966C101.801 16.4208 104.11 11.5995 104.753 10.3439C104.84 10.2686 104.869 10.1932 104.957 10.1179C105.045 10.0677 105.162 10.0426 105.249 10.0175C105.279 10.0175 105.366 10.143 105.366 10.2183C105.366 10.5448 105.337 10.8712 105.337 11.1726Z" fill="#222221"/>
</svg>
