<?xml version="1.0" encoding="UTF-8"?>
<svg id="Ebene_1" data-name="Ebene 1" xmlns="http://www.w3.org/2000/svg" viewBox="0 0 127.56 37.89">
  <path d="M21.64,37.89H1.84c-1.01,0-1.84-.82-1.84-1.84V1.84C0,.82.82,0,1.84,0h19.8c1.01,0,1.84.82,1.84,1.84v34.22c0,1.01-.82,1.84-1.84,1.84ZM21.64,1.84H1.84s0,34.22,0,34.22h19.8s0-34.22,0-34.22Z" fill="#fff" stroke-width="0"/>
  <rect x=".74" y="25.22" width="15.65" height="1.84" transform="translate(-18.7 22.47) rotate(-64.2)" fill="#fff" stroke-width="0"/>
  <rect x="7.1" y="25.23" width="15.67" height="1.84" transform="translate(-15.11 28.22) rotate(-64.23)" fill="#fff" stroke-width="0"/>
  <path d="M32.65,36.88v-1.1c-.55.85-1.35,1.28-2.42,1.28-.69,0-1.32-.19-1.9-.57-.58-.38-.98-.87-1.34-1.59-.32-.63-.4-1.04-.48-1.73-.13-1.16.14-2.26.43-2.96.29-.7.72-1.24,1.29-1.61.58-.37,1.22-.56,1.93-.56.52,0,.99.11,1.39.33.41.22.74.51.99.86v-4.3h1.47v11.95h-1.37ZM28.01,32.56c0,1.11.23,1.93.7,2.48.47.55,1.02.82,1.66.82s1.19-.26,1.64-.78c.45-.52.67-1.32.67-2.39,0-1.18-.23-2.05-.69-2.6-.46-.55-1.02-.83-1.69-.83s-1.2.27-1.64.8c-.44.53-.66,1.37-.66,2.51h0Z" fill="#fff" fill-rule="evenodd" stroke-width="0"/>
  <path d="M36.35,32.55c0-1.6.45-2.78,1.34-3.55.74-.64,1.65-.96,2.72-.96,1.19,0,2.16.39,2.92,1.17.76.78,1.13,1.85,1.13,3.22,0,1.11-.17,1.99-.5,2.62-.33.64-.82,1.13-1.46,1.48-.64.35-1.34.53-2.09.53-1.21,0-2.19-.39-2.94-1.16-.75-.77-1.12-1.89-1.12-3.35h0ZM37.86,32.55c0,1.11.24,1.93.73,2.48.48.55,1.09.83,1.83.83s1.34-.28,1.82-.83c.48-.55.73-1.39.73-2.53,0-1.07-.24-1.88-.73-2.43-.49-.55-1.09-.83-1.82-.83s-1.35.27-1.83.82c-.48.55-.73,1.37-.73,2.48h0Z" fill="#fff" fill-rule="evenodd" stroke-width="0"/>
  <path d="M52.69,36.88v-1.29c-.67.98-1.59,1.47-2.74,1.47-.51,0-.98-.1-1.43-.29-.44-.2-.77-.44-.98-.74-.21-.3-.36-.66-.45-1.09-.06-.29-.09-.74-.09-1.37v-5.36h1.47v4.79c0,.77.03,1.28.09,1.55.09.39.29.69.59.91.3.22.67.33,1.11.33s.85-.11,1.24-.34c.38-.23.66-.53.82-.92.16-.39.24-.95.24-1.69v-4.63h1.47v8.66h-1.32Z" fill="#fff" stroke-width="0"/>
  <path d="M58.51,36.88h-1.37v-11.95h1.47v4.26c.62-.77,1.41-1.16,2.37-1.16.53,0,1.04.11,1.51.32.48.21.87.52,1.17.9.31.39.55.85.72,1.4.17.55.26,1.13.26,1.76,0,1.48-.37,2.62-1.1,3.43-.73.81-1.61,1.21-2.64,1.21s-1.82-.42-2.4-1.27v1.09h0ZM58.49,32.48c0,1.04.14,1.78.42,2.25.46.75,1.09,1.13,1.87,1.13.64,0,1.19-.28,1.66-.83.47-.56.7-1.39.7-2.49,0-1.13-.22-1.96-.67-2.5-.45-.54-.99-.8-1.62-.8s-1.19.28-1.66.83c-.47.56-.7,1.36-.7,2.41h0Z" fill="#fff" fill-rule="evenodd" stroke-width="0"/>
  <polygon points="67.25 36.88 67.25 24.93 68.71 24.93 68.71 36.88 67.25 36.88 67.25 36.88" fill="#fff" stroke-width="0"/>
  <path d="M77.74,34.08l1.52.2c-.24.88-.68,1.57-1.33,2.06-.65.49-1.47.73-2.47.73-1.26,0-2.26-.39-3-1.17-.74-.78-1.11-1.87-1.11-3.27s.37-2.58,1.12-3.38c.75-.8,1.72-1.2,2.91-1.2s2.1.39,2.83,1.18c.73.79,1.1,1.89,1.1,3.32,0,.09,0,.22,0,.39h-6.45c.05.95.32,1.68.81,2.18.48.5,1.09.76,1.81.76.54,0,1-.14,1.37-.43.38-.28.68-.74.9-1.36h0ZM72.93,31.72h4.82c-.07-.73-.25-1.27-.55-1.64-.47-.57-1.07-.85-1.81-.85-.67,0-1.24.23-1.7.68-.46.45-.71,1.05-.76,1.81h0Z" fill="#fff" fill-rule="evenodd" stroke-width="0"/>
  <polygon points="96.65 36.88 96.65 24.93 98.12 24.93 98.12 36.88 96.65 36.88 96.65 36.88" fill="#fff" stroke-width="0"/>
  <path d="M106.89,35.8c-.55.46-1.07.79-1.57.98-.5.19-1.04.29-1.62.29-.95,0-1.68-.23-2.2-.69-.51-.46-.77-1.06-.77-1.78,0-.42.1-.81.29-1.16.19-.35.45-.63.76-.84.31-.21.67-.37,1.06-.48.29-.08.72-.15,1.31-.22,1.19-.14,2.06-.31,2.62-.5,0-.2,0-.33,0-.38,0-.6-.14-1.02-.42-1.26-.38-.33-.93-.5-1.68-.5-.69,0-1.2.12-1.53.36-.33.24-.57.67-.73,1.29l-1.44-.2c.13-.61.35-1.11.65-1.49.3-.38.73-.67,1.3-.87.57-.2,1.22-.31,1.97-.31s1.34.09,1.81.26c.46.17.8.39,1.02.66.22.26.37.6.46,1,.05.25.07.7.07,1.35v1.95c0,1.36.03,2.22.09,2.58.06.36.18.71.36,1.05h-1.54c-.15-.31-.24-.67-.28-1.08h0ZM106.77,32.54c-.53.22-1.33.4-2.4.55-.6.09-1.03.18-1.28.29-.25.11-.44.27-.58.47-.14.21-.2.44-.2.69,0,.39.15.71.44.97.3.26.73.39,1.3.39s1.07-.12,1.51-.37c.44-.25.76-.58.97-1.01.16-.33.24-.82.24-1.46v-.53h0Z" fill="#fff" fill-rule="evenodd" stroke-width="0"/>
  <path d="M110.77,34.29l1.45-.23c.08.58.31,1.03.68,1.34.37.31.89.46,1.56.46s1.18-.14,1.5-.41c.33-.27.49-.6.49-.96,0-.33-.15-.59-.44-.78-.2-.13-.7-.3-1.5-.5-1.07-.27-1.82-.5-2.23-.7-.42-.2-.73-.47-.94-.82-.21-.35-.32-.74-.32-1.16,0-.38.09-.74.26-1.07.18-.33.42-.6.72-.82.23-.17.54-.31.93-.43.39-.12.82-.18,1.27-.18.68,0,1.27.1,1.79.29.51.2.89.46,1.14.8.24.34.41.78.5,1.34l-1.44.2c-.06-.45-.25-.8-.56-1.06-.31-.25-.75-.38-1.32-.38-.67,0-1.15.11-1.44.33-.29.22-.43.48-.43.78,0,.19.06.36.18.51.12.16.31.29.56.39.15.05.58.18,1.29.37,1.03.28,1.76.5,2.17.68.41.18.74.43.97.77.23.34.35.75.35,1.25s-.14.95-.43,1.38c-.29.43-.7.76-1.24,1-.54.24-1.15.35-1.83.35-1.13,0-1.98-.23-2.57-.7-.59-.47-.97-1.16-1.13-2.07h0Z" fill="#fff" stroke-width="0"/>
  <path d="M120.53,36.88v-11.95h1.47v4.3c.68-.8,1.54-1.19,2.58-1.19.64,0,1.19.13,1.66.38.47.25.81.6,1.01,1.05.2.45.3,1.09.3,1.94v5.48h-1.47v-5.48c0-.73-.16-1.27-.47-1.6-.32-.33-.76-.5-1.34-.5-.43,0-.84.11-1.22.34-.38.23-.65.53-.81.92-.16.38-.24.92-.24,1.59v4.73h-1.47Z" fill="#fff" stroke-width="0"/>
  <path d="M81.31,31.35c.06,1.11.38,2.15.94,3.1.58.97,1.14,1.4,2.19,1.99.66.38,2.55.78,3.69.78h.11c.96-.03,2.08-.11,3.25-.76.99-.56,1.6-1.13,2.1-1.98.47-.79.68-1.62.68-2.68,0-.88-.23-1.64-.74-2.48-.45-.74-1.08-1.09-2.05-1.59-.56-.28-1.78-.82-3.75-1.31-1.99-.5-3.13-.97-3.68-1.53-.49-.49-.73-1.11-.73-1.84,0-.89.53-1.93,1.23-2.42.84-.58,1.87-.87,3.14-.87,1.37,0,2.5.32,3.27.93.51.4,1.12,1.09,1.4,2.86l1.57-.1c-.06-.99-.33-1.89-.81-2.69-.5-.84-1.23-1.49-2.16-1.92-.94-.44-2.05-.66-3.3-.66-1.12,0-2.16.21-3.08.63-.9.41-1.6,1.02-2.07,1.82-.47.8-.71,1.67-.71,2.58,0,.83.19,1.59.58,2.26.38.67.97,1.24,1.76,1.69.62.36,1.72.75,3.28,1.16,1.62.43,2.63.73,3.1.94.76.32,1.31.72,1.64,1.19.34.48.51,1.04.51,1.68s-.18,1.21-.52,1.74c-.35.53-.88.96-1.58,1.26-.69.3-1.49.45-2.39.45-1.01,0-1.93-.2-2.74-.59-.82-.39-1.43-.92-1.83-1.57-.36-.59-.6-1.34-.72-2.23l-1.57.14Z" fill="#fff" stroke-width="0"/>
</svg>