<svg id="Ebene_1" data-name="Ebene 1" xmlns="http://www.w3.org/2000/svg" viewBox="0 0 982.52 291.87"><defs><style>.cls-1{fill-rule:evenodd;}</style></defs><path d="M188.38,512.06H35.85a14.15,14.15,0,0,1-14.14-14.14V234.33a14.15,14.15,0,0,1,14.14-14.14H188.38a14.16,14.16,0,0,1,14.14,14.14V497.92A14.16,14.16,0,0,1,188.38,512.06Zm0-277.73H35.85V497.92H188.39Z" transform="translate(-21.71 -220.19)"/><rect x="27.37" y="414.46" width="120.58" height="14.15" transform="translate(-351.71 96.82) rotate(-64.2)"/><rect x="76.36" y="414.5" width="120.67" height="14.15" transform="translate(-324.1 141.22) rotate(-64.23)"/><path class="cls-1" d="M273.17,504.25v-8.46q-6.33,9.87-18.63,9.88a26.21,26.21,0,0,1-14.65-4.39c-4.45-2.92-7.52-6.67-10.35-12.25-2.44-4.81-3-8-3.67-13.34a47.89,47.89,0,0,1,3.33-22.8,26.25,26.25,0,0,1,10-12.44A26.73,26.73,0,0,1,254,436.13a22.14,22.14,0,0,1,10.72,2.55,22.74,22.74,0,0,1,7.65,6.64V412.23h11.31v92ZM237.44,471q0,12.78,5.41,19.1t12.77,6.32a16,16,0,0,0,12.62-6q5.19-6,5.19-18.44,0-13.65-5.29-20a16.26,16.26,0,0,0-13-6.38,15.7,15.7,0,0,0-12.61,6.13q-5.07,6.14-5.07,19.34Z" transform="translate(-21.71 -220.19)"/><path class="cls-1" d="M301.72,470.9q0-18.48,10.29-27.38,8.61-7.38,21-7.39,13.75,0,22.48,9T364.19,470q0,12.84-3.87,20.2a27.26,27.26,0,0,1-11.23,11.43A32.75,32.75,0,0,1,333,505.67q-14,0-22.63-9t-8.63-25.81Zm11.57,0q0,12.78,5.6,19.13A18.72,18.72,0,0,0,347,490q5.6-6.39,5.6-19.48,0-12.33-5.63-18.68a18.75,18.75,0,0,0-28.1,0q-5.61,6.32-5.6,19.09Z" transform="translate(-21.71 -220.19)"/><path d="M427.52,504.25v-9.92q-7.77,11.34-21.1,11.34a27,27,0,0,1-11-2.26,18.17,18.17,0,0,1-7.58-5.68,21.31,21.31,0,0,1-3.47-8.37,57.38,57.38,0,0,1-.69-10.54V437.54H395v36.92q0,8.84.69,11.91a11.77,11.77,0,0,0,4.51,7,14,14,0,0,0,8.51,2.54,18.54,18.54,0,0,0,9.51-2.6,14.47,14.47,0,0,0,6.29-7.08q1.85-4.49,1.85-13V437.54h11.31v66.71Z" transform="translate(-21.71 -220.19)"/><path class="cls-1" d="M472.34,504.25H461.8v-92h11.31v32.84a22.42,22.42,0,0,1,18.28-8.94A28,28,0,0,1,503,438.6a23.77,23.77,0,0,1,9.05,7,33.73,33.73,0,0,1,5.55,10.81,44.36,44.36,0,0,1,2,13.53q0,17.1-8.47,26.43t-20.32,9.34a21.26,21.26,0,0,1-18.51-9.82v8.4Zm-.13-33.85q0,12,3.26,17.3,5.34,8.71,14.42,8.71,7.41,0,12.79-6.42t5.4-19.16q0-13-5.18-19.24t-12.5-6.2q-7.41,0-12.79,6.42t-5.4,18.59Z" transform="translate(-21.71 -220.19)"/><polygon points="517.96 284.07 517.96 192.04 529.27 192.04 529.27 284.07 517.96 284.07 517.96 284.07"/><path class="cls-1" d="M620.47,482.66l11.7,1.54Q629.43,494.42,622,500t-19,5.64q-14.59,0-23.14-9t-8.55-25.22q0-16.79,8.64-26.06t22.42-9.27q13.35,0,21.8,9.09t8.45,25.56c0,.67,0,1.68-.06,3H582.81q.63,11,6.2,16.79a18.46,18.46,0,0,0,13.92,5.83,17.13,17.13,0,0,0,10.58-3.28c2.93-2.18,5.25-5.68,7-10.47Zm-37-18.12H620.6q-.75-8.42-4.26-12.62a17.25,17.25,0,0,0-14-6.53,17.86,17.86,0,0,0-13.06,5.21q-5.29,5.22-5.86,13.94Z" transform="translate(-21.71 -220.19)"/><polygon points="744.43 284.07 744.43 192.04 755.74 192.04 755.74 284.07 744.43 284.07 744.43 284.07"/><path class="cls-1" d="M845,495.9a42.27,42.27,0,0,1-12.12,7.56,34.85,34.85,0,0,1-12.48,2.21q-11,0-16.91-5.36a17.64,17.64,0,0,1-5.91-13.68,18.14,18.14,0,0,1,2.23-8.92,18.4,18.4,0,0,1,5.85-6.48,27.58,27.58,0,0,1,8.14-3.69,79.76,79.76,0,0,1,10.06-1.69q13.7-1.64,20.19-3.89c0-1.54.05-2.52.05-2.93q0-6.88-3.2-9.7-4.35-3.81-12.91-3.81-8,0-11.8,2.8t-5.63,9.92l-11.06-1.55a27.42,27.42,0,0,1,5-11.47,21.72,21.72,0,0,1,10-6.73,44.81,44.81,0,0,1,15.18-2.36,40.5,40.5,0,0,1,13.91,2,18.35,18.35,0,0,1,7.87,5.07,17.75,17.75,0,0,1,3.53,7.7,63,63,0,0,1,.57,10.4v15q0,15.69.69,19.88a26,26,0,0,0,2.78,8.06H847.2A25.48,25.48,0,0,1,845,495.9Zm-.9-25.07q-6.17,2.51-18.51,4.25a43.48,43.48,0,0,0-9.88,2.24,9.82,9.82,0,0,0-4.47,3.66,9.86,9.86,0,0,0,1.84,12.82q3.43,3,10,3A23.52,23.52,0,0,0,834.75,494a17.47,17.47,0,0,0,7.48-7.77q1.83-3.81,1.83-11.24l.05-4.12Z" transform="translate(-21.71 -220.19)"/><path d="M874.93,484.33l11.18-1.8q.95,6.72,5.26,10.3t12,3.58q7.8,0,11.58-3.17a9.46,9.46,0,0,0,3.77-7.43,6.82,6.82,0,0,0-3.39-6Q913,478.28,903.81,476q-12.39-3.12-17.2-5.41a16.43,16.43,0,0,1-9.75-15.26,17.1,17.1,0,0,1,2-8.23,18,18,0,0,1,5.55-6.29,23.08,23.08,0,0,1,7.17-3.29,34.09,34.09,0,0,1,9.75-1.35,38.42,38.42,0,0,1,13.76,2.27,18.75,18.75,0,0,1,8.74,6.14,24,24,0,0,1,3.89,10.35l-11.06,1.55a12.29,12.29,0,0,0-4.34-8.13q-3.61-2.93-10.18-2.92-7.75,0-11.08,2.57a7.49,7.49,0,0,0-3.32,6,6.29,6.29,0,0,0,1.38,3.95,9.94,9.94,0,0,0,4.32,3q1.69.63,9.95,2.89a141.1,141.1,0,0,1,16.72,5.23,17,17,0,0,1,7.47,5.92,16.46,16.46,0,0,1,2.71,9.64,18.89,18.89,0,0,1-3.3,10.62,21.34,21.34,0,0,1-9.51,7.7,34.71,34.71,0,0,1-14.08,2.73q-13,0-19.81-5.38t-8.7-16Z" transform="translate(-21.71 -220.19)"/><path d="M950.12,504.25v-92h11.31v33.1a25,25,0,0,1,19.87-9.2,26.65,26.65,0,0,1,12.81,2.92,17.08,17.08,0,0,1,7.78,8.06q2.34,5.14,2.34,14.93v42.21H992.92V462.07q0-8.46-3.64-12.32T979,445.9a18.16,18.16,0,0,0-9.38,2.6,14.7,14.7,0,0,0-6.27,7.05q-1.86,4.45-1.87,12.29v36.41Z" transform="translate(-21.71 -220.19)"/><path d="M648,461.64a51.39,51.39,0,0,0,7.27,23.88c4.44,7.47,8.78,10.77,16.83,15.36,5.08,2.9,19.67,6,28.39,6h.81c7.4-.19,16.06-.8,25-5.87,7.66-4.3,12.34-8.71,16.17-15.22,3.6-6.12,5.2-12.48,5.2-20.64,0-6.74-1.76-12.63-5.72-19.08-3.49-5.71-8.3-8.43-15.81-12.24-4.28-2.14-13.73-6.3-28.86-10.1-15.36-3.85-24.11-7.48-28.37-11.79a19.37,19.37,0,0,1-5.65-14.14c0-6.87,4.08-14.88,9.49-18.65,6.47-4.5,14.38-6.69,24.18-6.69,10.54,0,19.24,2.48,25.17,7.18,3.92,3.11,8.65,8.43,10.78,22l12.13-.81a45.52,45.52,0,0,0-6.22-20.68,37.12,37.12,0,0,0-16.64-14.78c-7.27-3.38-15.81-5.09-25.39-5.09a56.82,56.82,0,0,0-23.71,4.85,34.85,34.85,0,0,0-16,14,38.54,38.54,0,0,0-5.48,19.9,34.58,34.58,0,0,0,4.44,17.43,35.9,35.9,0,0,0,13.56,13c4.76,2.79,13.26,5.8,25.25,9,12.45,3.29,20.27,5.65,23.91,7.22,5.82,2.43,10.08,5.52,12.67,9.17a21.92,21.92,0,0,1,3.93,12.94,24.17,24.17,0,0,1-4,13.43c-2.67,4.1-6.77,7.36-12.2,9.7a46.57,46.57,0,0,1-18.41,3.44,48.18,48.18,0,0,1-21.11-4.53c-6.31-3-11-7.1-14.07-12.07-2.77-4.55-4.63-10.33-5.52-17.19Z" transform="translate(-21.71 -220.19)"/></svg>